<?xml version="1.0" encoding="UTF-8" ?>
<!DOCTYPE svg PUBLIC "-//W3C//DTD SVG 1.1//EN" "http://www.w3.org/Graphics/SVG/1.1/DTD/svg11.dtd">
<svg width="1673pt" height="338pt" viewBox="0 0 1673 338" version="1.1" xmlns="http://www.w3.org/2000/svg">
<g id="#000000fe">
<path fill="#000000" opacity="1.00" d=" M 377.12 63.39 C 378.22 61.31 381.78 61.30 382.88 63.39 C 383.19 66.58 382.97 69.80 382.99 73.00 C 721.31 73.00 1059.64 73.00 1397.96 73.00 C 1443.74 72.90 1489.53 73.20 1535.31 72.85 C 1536.64 71.86 1538.33 71.86 1539.69 72.85 C 1566.63 73.19 1593.58 72.90 1620.53 73.00 C 1621.41 73.86 1622.32 74.71 1623.25 75.56 C 1622.87 76.59 1622.49 77.62 1622.12 78.64 C 1621.84 132.10 1622.08 185.56 1622.00 239.02 C 1622.08 245.78 1621.80 252.55 1622.17 259.31 C 1622.70 260.64 1622.92 262.07 1623.20 263.49 C 1622.29 264.31 1621.41 265.15 1620.55 265.99 C 1594.56 265.97 1568.57 266.08 1542.58 265.94 C 1541.96 265.62 1540.72 264.97 1540.11 264.65 C 1540.05 265.35 1539.94 266.74 1539.88 267.43 C 1539.57 268.07 1538.96 269.36 1538.65 270.00 C 1537.41 270.00 1536.19 270.00 1535.00 270.00 C 1534.98 268.29 1534.98 266.59 1535.01 264.88 C 1532.76 265.74 1530.39 266.16 1528.00 266.04 C 1506.56 265.87 1485.12 266.20 1463.68 265.87 C 1462.15 264.18 1460.80 265.74 1459.52 266.64 L 1461.10 266.99 C 1460.58 267.98 1460.10 268.99 1459.64 270.00 C 1458.41 270.00 1457.20 270.00 1456.01 270.00 C 1455.98 268.22 1455.97 266.44 1455.96 264.67 C 1454.73 265.04 1453.52 265.43 1452.34 265.86 C 1425.93 266.21 1399.51 265.86 1373.09 266.04 C 1371.10 266.00 1369.00 266.22 1367.25 265.09 C 1366.03 266.30 1365.55 269.46 1363.45 268.92 C 1361.94 267.96 1361.20 266.29 1360.42 264.78 C 1359.93 265.07 1358.94 265.66 1358.45 265.95 C 1253.20 266.16 1147.94 265.78 1042.69 266.14 C 1041.56 266.99 1040.43 266.99 1039.31 266.15 C 995.87 265.81 952.42 266.10 908.98 266.00 C 888.55 266.11 868.11 265.78 847.68 266.17 C 846.32 266.71 844.88 266.96 843.46 267.23 C 842.87 266.53 842.30 265.83 841.73 265.14 C 840.57 265.74 839.34 266.03 838.05 266.02 C 740.37 265.99 642.69 265.99 545.01 266.01 C 543.70 266.05 542.47 265.77 541.32 265.16 C 539.44 266.04 538.00 267.50 537.31 269.47 C 536.07 272.31 532.67 273.16 531.43 275.98 C 530.73 275.97 529.33 275.96 528.63 275.95 C 529.57 273.32 530.96 270.74 533.66 269.58 C 534.64 268.04 535.63 266.48 536.47 264.85 C 534.71 265.01 532.91 265.03 531.31 265.84 C 509.21 266.22 487.09 265.89 464.99 266.00 C 438.89 265.90 412.78 266.19 386.69 265.86 C 386.12 265.63 384.97 265.17 384.40 264.94 C 382.00 266.78 383.45 270.08 382.86 272.64 C 381.74 274.69 378.20 274.68 377.12 272.60 C 376.83 269.97 377.00 267.31 376.97 264.67 C 375.75 265.04 374.54 265.43 373.34 265.86 C 339.23 266.20 305.10 265.89 270.99 266.01 C 267.86 265.82 264.49 266.63 261.55 265.24 C 260.79 265.58 260.02 265.93 259.26 266.28 C 259.02 267.95 258.38 270.66 256.12 270.04 C 253.62 269.86 254.01 266.69 253.83 264.90 C 253.29 264.99 252.21 265.16 251.67 265.25 C 250.49 265.74 249.26 265.99 247.99 266.01 C 182.81 265.99 117.62 266.01 52.44 266.00 C 51.63 265.18 50.81 264.37 50.00 263.57 C 50.00 200.86 50.00 138.15 50.00 75.44 C 50.82 74.63 51.63 73.82 52.44 73.00 C 119.62 73.00 186.81 73.00 254.00 73.00 C 254.00 71.33 254.00 69.67 254.00 68.00 C 255.55 68.00 257.10 68.00 258.65 67.99 C 259.04 68.87 259.44 69.74 259.85 70.61 C 259.54 71.20 258.94 72.38 258.63 72.97 C 298.09 73.04 337.55 72.98 377.01 73.00 C 377.03 69.80 376.80 66.58 377.12 63.39 M 373.01 80.01 C 335.01 79.99 297.01 80.01 259.00 80.00 C 259.00 139.67 259.00 199.33 259.00 259.00 C 298.33 259.00 337.67 259.00 377.00 259.00 C 377.00 213.32 377.00 167.64 377.00 121.96 L 376.50 122.09 C 373.32 126.70 370.07 131.31 366.24 135.42 C 365.94 134.80 365.32 133.56 365.01 132.94 C 368.69 127.58 372.83 122.48 376.97 117.46 C 377.09 104.65 376.87 91.83 377.08 79.03 C 375.79 79.59 374.45 80.09 373.01 80.01 M 1255.26 79.11 C 1255.49 82.40 1258.24 77.52 1255.26 79.11 M 1457.26 79.10 C 1457.45 82.39 1460.26 77.54 1457.26 79.10 M 57.00 80.00 C 57.00 139.67 57.00 199.33 57.00 259.00 C 87.33 259.00 117.67 259.00 148.00 259.00 C 148.00 199.33 148.00 139.67 148.00 80.00 C 117.67 80.00 87.33 80.00 57.00 80.00 M 152.95 80.00 C 153.00 81.77 153.05 83.54 153.17 85.31 C 153.73 86.47 154.01 87.69 154.01 88.98 C 153.99 142.67 154.00 196.37 154.01 250.06 C 154.01 251.33 153.73 252.54 153.17 253.69 C 153.05 255.46 153.00 257.23 152.95 259.00 C 186.63 259.00 220.32 259.00 254.00 259.00 C 254.00 199.33 254.00 139.67 254.00 80.00 C 220.32 80.00 186.63 80.00 152.95 80.00 M 383.00 80.00 C 383.04 89.50 382.92 99.00 383.06 108.50 C 386.17 105.38 388.12 101.36 391.09 98.12 C 395.62 91.59 402.96 87.38 406.44 80.07 C 398.63 79.93 390.81 80.03 383.00 80.00 M 411.54 80.05 C 411.00 80.37 409.91 81.01 409.37 81.34 C 406.71 85.25 404.38 89.64 400.50 92.50 C 399.29 94.27 397.60 95.59 395.97 96.94 C 391.28 102.17 387.39 108.06 383.03 113.56 C 382.96 157.50 383.02 201.44 383.00 245.38 C 389.00 240.14 393.20 233.28 398.24 227.19 C 403.39 220.98 408.16 214.47 412.97 207.99 C 415.03 205.08 417.95 202.93 420.02 200.02 C 422.99 195.98 426.03 191.99 429.00 187.95 C 431.32 184.67 434.70 182.32 436.99 179.01 C 439.57 175.29 443.43 172.70 446.01 168.99 C 448.86 164.91 453.12 162.10 455.98 158.02 C 459.28 153.34 464.39 150.23 467.21 145.17 C 469.12 141.84 472.31 139.58 474.58 136.55 C 478.20 131.57 483.13 127.78 487.22 123.22 C 497.05 111.76 504.08 97.62 516.67 88.75 C 517.10 89.66 517.95 90.46 518.02 91.51 C 505.52 100.31 499.06 114.83 488.77 125.76 C 486.56 127.89 484.34 130.02 482.50 132.48 C 479.08 136.07 475.75 139.77 472.39 143.42 C 469.30 148.23 465.30 152.26 461.32 156.31 C 457.77 161.67 452.29 165.32 448.59 170.56 C 446.33 173.60 443.18 175.85 441.02 178.98 C 439.38 181.33 437.22 183.23 435.25 185.28 C 430.24 190.99 425.98 197.32 421.21 203.23 C 417.18 206.96 414.12 211.53 410.84 215.90 C 404.19 224.27 397.83 232.87 391.21 241.26 C 388.41 244.25 385.16 246.86 382.99 250.40 C 383.00 253.26 383.00 256.13 383.00 259.00 C 435.89 259.02 488.78 258.95 541.68 259.03 C 549.80 248.04 560.71 239.63 571.64 231.60 C 572.53 230.19 573.46 228.81 574.36 227.40 C 577.37 225.25 580.30 222.99 583.44 221.04 C 584.08 221.03 585.37 220.99 586.01 220.98 C 586.00 221.63 586.00 222.94 585.99 223.60 C 583.02 224.91 580.14 226.53 577.74 228.73 C 575.78 230.49 574.65 232.95 572.73 234.74 C 562.90 241.80 552.81 249.00 545.75 259.02 C 549.69 258.99 553.64 259.00 557.59 259.00 C 558.74 255.66 561.05 252.92 563.86 250.84 C 568.09 247.78 571.79 243.91 576.58 241.69 C 577.55 241.17 578.52 240.65 579.49 240.13 C 579.99 240.07 580.99 239.96 581.50 239.90 C 585.52 237.64 589.42 235.17 593.54 233.09 C 594.69 233.04 595.84 233.00 597.00 232.96 C 597.00 233.71 597.00 235.20 597.00 235.95 C 596.38 235.99 595.15 236.07 594.54 236.11 C 592.90 237.02 591.23 237.89 589.57 238.75 C 587.55 239.71 585.55 240.71 583.57 241.74 C 582.51 242.24 581.47 242.76 580.43 243.27 C 579.47 243.74 578.51 244.21 577.55 244.68 C 574.01 246.20 571.38 249.06 568.35 251.32 C 565.62 253.73 562.05 255.42 560.49 258.90 C 593.22 259.13 625.96 258.93 658.69 259.00 C 659.02 257.78 659.39 256.58 659.78 255.38 C 659.84 254.88 659.97 253.87 660.04 253.37 C 661.59 250.86 663.78 248.85 665.60 246.53 C 669.06 241.46 672.78 236.50 677.24 232.25 C 683.40 225.37 688.69 217.75 695.13 211.12 C 699.64 204.72 706.36 200.28 710.86 193.87 C 716.52 187.84 721.96 181.62 727.25 175.25 C 735.23 167.23 743.26 159.26 751.25 151.24 C 754.86 147.50 758.90 144.12 761.89 139.83 C 771.83 128.67 783.92 119.41 792.54 107.10 C 792.77 107.05 793.22 106.95 793.45 106.89 C 795.06 104.36 797.28 102.27 798.77 99.65 C 799.91 96.03 802.89 93.59 805.45 90.97 C 806.22 91.01 807.76 91.10 808.54 91.14 C 806.79 94.19 803.71 96.22 802.24 99.44 C 799.43 104.38 795.74 108.73 791.89 112.87 C 787.80 118.72 781.75 122.80 777.53 128.53 C 770.51 133.52 766.11 141.10 759.72 146.76 C 755.06 150.78 752.13 156.42 747.16 160.11 C 742.49 163.38 738.89 167.84 734.77 171.72 C 730.70 175.37 727.67 179.95 723.89 183.87 C 721.23 187.82 717.29 190.65 714.58 194.55 C 710.99 199.41 705.62 202.70 702.46 207.90 C 702.23 207.95 701.77 208.05 701.54 208.10 C 699.88 211.16 697.05 213.25 694.77 215.80 C 687.15 225.15 679.37 234.39 671.40 243.44 C 669.09 247.47 665.64 250.61 662.99 254.39 C 662.99 254.93 662.99 256.01 662.99 256.55 C 662.19 257.36 661.41 258.17 660.64 259.00 C 685.29 258.90 709.96 259.20 734.60 258.85 C 738.55 254.04 741.67 248.53 746.23 244.23 C 748.90 241.55 751.80 239.06 754.01 235.97 C 756.59 232.28 760.42 229.70 763.00 226.01 C 765.71 222.09 769.76 219.37 772.59 215.54 C 776.71 209.75 782.85 205.75 786.86 199.85 C 789.06 196.70 792.55 194.89 795.27 192.27 C 799.25 188.86 801.87 184.22 805.77 180.74 C 810.50 176.04 813.52 169.91 818.28 165.23 C 821.39 162.27 823.56 158.49 826.79 155.63 C 827.10 156.23 827.70 157.44 828.00 158.04 C 825.34 162.28 821.61 165.65 818.40 169.44 C 813.03 177.87 805.66 184.69 799.52 192.51 C 792.84 197.82 787.04 204.05 781.52 210.51 C 778.63 212.29 777.25 215.52 774.78 217.74 C 771.02 221.02 768.58 225.48 764.79 228.72 C 760.29 232.62 757.30 237.87 752.77 241.74 C 746.94 246.78 742.99 253.50 737.67 259.01 C 772.44 258.98 807.22 259.01 842.00 259.00 C 842.00 199.33 842.00 139.67 842.00 80.00 C 785.82 80.01 729.64 79.99 673.46 80.01 C 671.84 83.39 669.32 86.16 666.83 88.90 C 663.15 94.13 659.42 99.41 654.71 103.77 C 651.24 106.80 649.44 111.54 645.06 113.52 C 645.03 114.01 644.97 114.99 644.94 115.48 C 642.83 119.52 637.96 121.06 636.29 125.39 C 635.38 124.65 634.47 123.91 633.69 123.07 C 636.20 119.83 639.73 117.46 641.77 113.83 C 642.95 111.72 644.53 109.90 646.52 108.51 C 651.86 102.49 657.66 96.80 662.24 90.14 C 664.46 86.39 668.27 83.91 670.29 80.00 C 584.04 80.03 497.79 79.94 411.54 80.05 M 848.00 80.00 C 848.00 139.67 848.00 199.33 848.00 259.00 C 911.33 259.00 974.67 259.00 1038.00 259.00 C 1037.99 200.65 1038.01 142.31 1037.99 83.96 C 1037.90 82.54 1038.40 81.21 1038.96 79.92 C 975.31 80.11 911.65 79.95 848.00 80.00 M 1043.00 80.00 C 1043.00 139.67 1043.00 199.33 1043.00 259.00 C 1077.00 259.00 1111.00 259.00 1145.00 259.00 C 1145.00 199.33 1145.00 139.67 1145.00 80.00 C 1111.00 80.00 1077.00 80.00 1043.00 80.00 M 1150.00 80.00 C 1150.00 139.67 1150.00 199.33 1150.00 259.00 C 1184.67 259.00 1219.33 259.00 1254.00 259.00 C 1254.00 199.33 1254.00 139.67 1254.00 80.00 C 1219.33 80.00 1184.67 80.00 1150.00 80.00 M 1258.00 80.00 C 1258.00 139.67 1258.00 199.33 1258.00 259.00 C 1292.33 259.00 1326.67 259.00 1361.00 259.00 C 1361.00 199.33 1361.00 139.67 1361.00 80.00 C 1326.67 80.00 1292.33 80.00 1258.00 80.00 M 1366.00 80.00 C 1366.00 139.67 1366.00 199.33 1366.00 259.00 C 1396.00 259.00 1426.00 259.00 1456.00 259.00 C 1456.00 199.33 1456.00 139.67 1456.00 80.00 C 1426.00 80.00 1396.00 80.00 1366.00 80.00 M 1459.89 79.99 C 1461.22 83.16 1461.07 86.63 1461.02 89.99 C 1460.93 145.47 1461.10 200.94 1460.93 256.41 C 1460.61 257.05 1459.97 258.33 1459.65 258.97 C 1484.76 259.03 1509.88 258.98 1535.00 259.00 C 1535.00 199.33 1535.00 139.67 1535.00 80.00 C 1509.96 79.99 1484.92 80.01 1459.89 79.99 M 1539.04 79.92 C 1540.36 82.43 1539.97 85.32 1540.03 88.06 C 1539.92 144.17 1540.11 200.30 1539.93 256.42 C 1539.61 257.05 1538.97 258.33 1538.65 258.97 C 1564.43 259.03 1590.21 258.98 1616.00 259.00 C 1616.00 199.33 1616.00 139.67 1616.00 80.00 C 1590.35 79.95 1564.69 80.11 1539.04 79.92 Z" />
<path fill="#000000" opacity="1.00" d=" M 761.37 83.44 C 762.19 82.09 763.52 81.24 764.88 80.49 C 764.92 81.27 764.99 82.83 765.03 83.61 C 761.11 89.11 756.33 93.93 752.41 99.43 C 746.26 108.15 738.66 115.73 730.31 122.33 C 722.11 129.81 714.75 138.12 707.76 146.72 C 703.65 150.34 700.83 155.10 696.77 158.76 C 691.95 163.28 687.74 168.46 682.33 172.31 C 676.93 177.28 671.76 182.52 667.44 188.47 C 663.98 193.28 658.97 196.72 655.67 201.67 C 652.34 206.45 647.84 210.21 644.52 214.99 C 643.44 215.06 642.68 214.07 641.78 213.65 C 645.46 207.84 650.60 203.24 654.75 197.81 C 658.05 194.11 662.09 191.07 664.84 186.90 C 667.59 182.70 671.34 179.33 674.34 175.34 C 677.58 172.98 680.37 170.11 683.27 167.35 C 687.09 164.55 690.63 161.33 693.49 157.52 C 700.45 150.13 707.47 142.77 713.78 134.78 C 719.06 129.38 724.41 124.03 729.81 118.75 C 739.28 111.59 746.81 102.29 753.69 92.70 C 755.90 89.33 759.08 86.75 761.37 83.44 Z" />
<path fill="#000000" opacity="1.00" d=" M 480.44 82.97 C 481.21 83.01 482.75 83.10 483.53 83.14 C 481.21 87.16 477.25 89.78 474.30 93.28 C 470.67 97.74 468.30 103.13 464.26 107.26 C 462.43 109.11 461.00 111.31 459.77 113.59 C 455.63 120.31 449.83 125.75 444.23 131.23 C 437.82 138.52 431.66 146.02 425.69 153.68 C 421.60 157.66 418.23 162.27 414.65 166.69 C 410.53 171.05 407.41 176.23 404.35 181.35 C 403.74 180.55 401.57 180.21 402.08 179.01 C 406.44 171.63 411.72 164.84 417.42 158.45 C 425.37 149.99 432.06 140.45 439.73 131.74 C 442.07 129.41 444.55 127.19 446.48 124.49 C 450.02 121.73 452.49 117.84 455.39 114.44 C 458.84 108.32 464.04 103.48 467.77 97.58 C 470.66 91.66 476.14 87.77 480.44 82.97 Z" />
<path fill="#000000" opacity="1.00" d=" M 553.55 83.04 C 554.17 83.03 555.39 82.99 556.01 82.98 C 556.00 83.62 556.00 84.91 555.99 85.56 C 554.03 87.40 552.05 89.27 550.61 91.56 C 547.38 96.58 543.35 101.04 540.26 106.16 C 536.83 111.95 530.90 115.60 527.00 121.01 C 524.14 125.08 519.89 127.90 517.03 131.96 C 514.31 135.90 510.24 138.62 507.39 142.44 C 502.25 150.11 496.41 157.34 489.74 163.73 C 479.85 175.24 470.10 186.89 461.12 199.14 C 458.04 203.61 453.84 207.14 450.71 211.54 C 447.04 217.84 441.46 222.73 437.09 228.53 C 437.04 229.01 436.94 229.97 436.90 230.44 C 433.49 234.75 430.91 239.62 427.58 243.98 C 426.40 244.34 424.24 242.86 425.22 241.61 C 427.96 238.09 430.59 234.48 432.74 230.57 C 437.06 222.58 443.91 216.44 448.84 208.89 C 450.45 206.99 452.27 205.26 453.54 203.10 C 453.77 203.05 454.23 202.95 454.45 202.90 C 466.42 186.87 478.79 171.04 492.49 156.47 C 498.82 150.00 503.57 142.27 509.57 135.53 C 513.31 130.33 518.66 126.59 522.58 121.55 C 526.15 116.52 531.24 112.85 535.17 108.13 C 538.91 102.87 542.62 97.60 546.25 92.27 C 548.41 88.97 551.51 86.42 553.55 83.04 Z" />
<path fill="#000000" opacity="1.00" d=" M 642.50 83.00 C 643.25 83.03 644.76 83.09 645.52 83.12 C 643.85 86.15 641.25 88.47 638.49 90.48 C 636.67 93.33 633.35 94.74 631.68 97.72 C 628.58 102.84 623.46 106.22 620.12 111.14 C 617.30 114.31 614.49 117.70 610.68 119.70 C 612.48 121.90 614.36 124.03 616.00 126.37 C 615.78 130.78 616.63 135.34 615.35 139.65 C 615.03 141.33 614.76 143.03 614.28 144.68 C 614.04 146.68 613.97 148.74 613.26 150.66 C 613.11 151.60 612.97 152.54 612.84 153.49 C 611.59 155.83 610.40 158.19 609.13 160.52 C 609.08 161.01 608.97 162.00 608.92 162.50 C 606.76 164.64 605.06 167.18 603.58 169.83 C 604.82 169.95 606.07 170.08 607.33 170.22 C 609.90 171.37 612.77 170.96 615.50 171.07 C 616.46 171.64 617.42 172.20 618.40 172.76 C 619.82 173.04 621.25 173.32 622.65 173.74 C 623.59 173.87 624.55 174.01 625.51 174.14 C 629.01 175.65 632.20 177.90 633.95 181.39 C 634.01 182.70 634.07 184.01 634.18 185.32 C 635.22 186.99 635.24 189.02 634.17 190.69 C 634.00 193.34 634.19 196.07 633.35 198.64 C 633.20 199.08 632.91 199.98 632.77 200.42 C 632.38 201.42 632.00 202.43 631.64 203.44 C 631.33 204.47 631.04 205.50 630.77 206.53 C 628.50 210.41 625.21 213.49 621.46 215.92 C 620.96 215.96 619.95 216.04 619.45 216.08 C 618.47 216.70 617.49 217.33 616.53 217.96 C 613.46 217.98 610.29 218.37 607.34 217.34 C 605.67 217.03 604.01 216.76 602.37 216.37 C 601.93 216.19 601.06 215.83 600.62 215.66 C 599.23 215.31 597.83 215.03 596.45 214.75 C 595.48 214.26 594.52 213.77 593.56 213.28 C 592.50 212.94 591.44 212.58 590.40 212.21 C 589.90 212.13 588.91 211.99 588.41 211.91 C 587.36 211.21 586.32 210.51 585.29 209.80 C 583.69 210.87 582.11 211.95 580.52 213.03 C 578.62 212.01 577.09 210.51 576.05 208.63 C 575.97 208.14 575.81 207.15 575.73 206.66 C 574.12 203.05 575.95 198.86 574.16 195.31 C 573.74 188.78 574.25 182.22 573.85 175.69 C 572.86 174.34 572.85 172.65 573.85 171.31 C 574.55 165.34 573.06 159.15 574.73 153.32 C 574.94 151.32 575.10 149.31 575.62 147.36 C 575.81 146.93 576.18 146.06 576.37 145.63 C 577.39 142.41 577.04 138.99 576.83 135.68 C 575.62 133.19 576.06 130.36 575.83 127.70 C 574.26 125.61 574.67 121.36 578.04 121.94 C 580.26 121.44 580.82 124.13 582.00 125.41 C 581.99 126.82 581.99 128.23 582.00 129.64 C 582.39 130.00 583.16 130.71 583.55 131.07 C 585.54 126.41 590.32 123.94 594.58 121.69 C 595.54 121.19 596.50 120.70 597.47 120.20 C 599.23 120.00 601.05 119.94 602.69 119.17 C 604.60 119.04 606.53 118.99 608.46 118.94 C 613.28 111.77 620.85 106.95 625.88 99.91 C 628.85 96.86 630.86 92.88 634.50 90.51 C 636.54 87.38 640.13 85.85 642.50 83.00 M 602.70 126.17 C 601.07 126.92 599.28 127.00 597.54 127.20 C 595.38 128.83 592.95 130.11 590.92 131.92 C 589.34 133.82 587.82 135.78 586.05 137.50 C 586.03 138.02 585.98 139.06 585.96 139.58 C 585.25 140.59 584.53 141.60 583.82 142.61 C 584.15 143.62 584.50 144.64 584.87 145.64 C 585.25 155.53 584.74 165.43 585.14 175.31 C 585.99 176.44 585.98 177.57 585.14 178.70 C 584.82 187.10 585.08 195.52 585.00 203.93 C 585.60 203.99 586.80 204.10 587.40 204.16 C 588.77 204.70 590.16 205.20 591.55 205.72 C 592.56 206.06 593.58 206.42 594.60 206.80 C 595.09 206.88 596.06 207.04 596.55 207.12 C 597.51 207.70 598.48 208.28 599.46 208.86 C 599.93 208.97 600.88 209.20 601.36 209.31 C 603.75 209.95 606.26 210.03 608.65 210.69 C 609.54 210.88 610.44 211.08 611.35 211.29 C 612.45 211.92 613.56 211.90 614.67 211.25 C 615.16 211.17 616.15 211.02 616.65 210.94 C 617.08 210.45 617.94 209.48 618.37 209.00 C 618.92 209.00 620.01 209.00 620.56 209.00 C 621.68 207.84 622.82 206.69 623.98 205.56 C 624.00 205.04 624.05 204.00 624.07 203.48 C 624.67 202.50 625.27 201.52 625.88 200.55 C 625.97 200.07 626.16 199.10 626.25 198.62 C 626.65 197.29 627.01 195.95 627.41 194.62 C 628.37 191.29 627.94 187.80 628.01 184.40 C 626.94 182.69 625.75 180.90 623.61 180.53 C 621.55 180.16 619.48 179.86 617.45 179.39 C 616.43 179.05 615.42 178.70 614.42 178.34 C 613.39 177.94 612.38 177.52 611.38 177.09 C 611.20 177.27 610.84 177.63 610.66 177.82 C 608.57 177.15 606.41 176.82 604.33 176.17 C 602.34 176.04 600.35 175.99 598.38 175.98 C 596.14 174.84 594.60 172.91 593.76 170.57 C 596.05 166.92 599.81 164.46 601.79 160.60 C 603.17 158.27 604.58 155.95 605.77 153.52 C 606.03 152.13 606.31 150.75 606.66 149.39 C 606.83 148.95 607.19 148.06 607.37 147.62 C 608.22 144.91 607.66 141.95 608.79 139.31 C 608.94 137.44 609.04 135.56 609.21 133.68 C 609.70 132.38 609.91 130.99 610.12 129.62 C 609.76 129.05 609.03 127.90 608.66 127.32 C 608.10 126.99 606.99 126.34 606.43 126.01 C 605.18 126.05 603.93 126.10 602.70 126.17 Z" />
<path fill="#000000" opacity="1.00" d=" M 427.43 85.00 C 428.95 85.00 430.47 85.00 432.00 85.00 C 432.00 85.75 432.00 87.26 432.00 88.01 C 430.77 88.00 429.55 87.98 428.33 87.97 C 424.33 91.91 422.21 97.28 418.27 101.27 C 414.36 105.46 411.67 110.58 407.90 114.89 C 404.62 119.56 400.05 123.06 396.30 127.32 C 393.74 130.52 391.25 133.80 389.25 137.38 C 389.21 139.50 387.84 140.96 385.85 141.51 C 385.98 139.77 386.12 138.02 386.68 136.35 C 386.80 135.90 387.04 135.00 387.16 134.55 C 389.94 130.57 392.52 126.39 396.26 123.21 C 404.33 115.97 410.18 106.77 416.50 98.07 C 416.77 98.04 417.29 97.97 417.56 97.94 C 420.23 93.19 423.35 88.66 427.43 85.00 Z" />
<path fill="#000000" opacity="1.00" d=" M 608.42 87.02 C 609.07 87.01 610.36 87.00 611.01 86.99 C 611.00 87.64 610.99 88.94 610.99 89.58 C 604.69 92.30 600.31 97.87 594.89 101.90 C 590.94 105.64 585.75 108.30 583.21 113.33 C 583.28 115.40 581.92 116.80 580.09 117.50 C 580.02 115.80 580.00 114.10 579.97 112.39 C 583.91 106.26 590.09 102.25 595.31 97.35 C 599.67 93.89 603.74 90.06 608.42 87.02 Z" />
<path fill="#000000" opacity="1.00" d=" M 700.53 87.13 C 702.03 86.35 702.46 88.50 703.34 89.30 C 700.95 90.49 698.89 92.22 697.25 94.31 C 690.97 103.14 684.71 112.36 675.87 118.87 C 665.36 128.10 656.77 139.14 647.41 149.45 C 642.17 155.99 636.32 161.98 631.10 168.53 C 631.04 169.00 630.91 169.95 630.85 170.42 C 630.52 171.15 629.87 172.60 629.54 173.33 C 628.70 172.81 627.86 172.29 627.04 171.78 C 627.47 170.69 627.88 169.59 628.28 168.48 C 630.11 163.95 633.66 160.46 636.72 156.75 C 644.37 149.66 650.21 140.89 657.50 133.47 C 660.52 129.53 664.33 126.31 667.75 122.75 C 670.82 119.80 673.56 116.48 677.04 113.99 C 679.22 112.53 680.43 110.08 682.49 108.47 C 689.04 101.79 693.05 92.95 700.53 87.13 Z" />
<path fill="#000000" opacity="1.00" d=" M 739.44 86.97 C 740.21 87.01 741.76 87.10 742.53 87.14 C 738.33 92.77 734.06 98.69 728.07 102.54 C 728.04 102.90 727.97 103.61 727.94 103.97 C 727.59 103.99 726.89 104.03 726.54 104.06 C 724.08 108.30 719.97 111.17 716.75 114.79 C 714.00 118.07 709.77 119.79 707.53 123.53 C 703.26 126.53 700.21 130.86 696.16 134.11 C 690.77 138.02 686.54 143.23 681.73 147.78 C 673.27 155.71 666.42 165.11 658.77 173.77 C 651.55 180.22 646.68 188.69 640.50 196.05 C 639.51 195.85 638.69 195.19 637.83 194.75 C 640.87 189.33 645.54 185.15 648.98 180.01 C 652.66 175.71 656.00 171.10 660.23 167.28 C 664.42 162.45 668.43 157.45 672.74 152.71 C 681.15 144.81 688.63 135.88 697.74 128.75 C 702.27 124.28 706.75 119.73 711.24 115.21 C 714.02 112.31 717.80 110.49 720.15 107.14 C 722.97 103.01 726.66 99.57 730.73 96.69 C 733.92 93.72 736.09 89.82 739.44 86.97 Z" />
<path fill="#000000" opacity="1.00" d=" M 451.50 88.02 C 452.13 88.01 453.40 87.99 454.03 87.98 C 454.01 88.61 453.96 89.85 453.94 90.47 C 450.85 94.18 447.89 98.02 444.24 101.23 C 437.77 108.45 432.35 116.62 425.24 123.27 C 421.62 127.95 417.33 132.06 414.02 136.98 C 408.88 142.90 405.22 150.02 399.31 155.28 C 398.84 154.51 398.39 153.73 397.97 152.94 C 404.59 144.54 410.85 135.87 417.56 127.53 C 420.48 123.50 424.55 120.47 427.33 116.30 C 433.63 110.21 438.51 102.88 444.49 96.50 C 447.59 94.40 449.48 91.08 451.50 88.02 Z" />
<path fill="#000000" opacity="1.00" d=" M 526.58 88.60 C 527.36 89.46 529.69 89.98 528.81 91.49 C 525.37 97.59 520.72 102.93 516.44 108.45 C 511.44 115.07 505.30 120.72 500.58 127.55 C 495.61 133.66 492.40 141.15 486.23 146.24 C 477.55 156.26 469.26 166.63 460.99 177.01 C 455.29 184.62 449.70 192.32 443.41 199.46 C 439.47 205.71 434.04 210.84 430.21 217.17 C 426.77 222.67 422.68 227.78 419.70 233.57 C 419.10 234.72 418.48 235.87 417.87 237.02 C 418.53 237.05 419.85 237.11 420.51 237.14 C 419.58 238.38 419.04 240.70 417.02 240.03 C 414.85 239.84 414.94 237.21 414.94 235.58 C 416.39 233.20 417.80 230.80 419.25 228.41 C 423.88 221.07 428.56 213.72 433.88 206.85 C 439.01 201.54 442.26 194.73 447.70 189.67 C 457.75 176.13 468.27 162.94 479.01 149.95 C 482.29 145.61 486.82 142.38 489.73 137.73 C 496.41 127.90 503.16 118.04 511.68 109.69 C 516.81 102.80 523.01 96.50 526.58 88.60 Z" />
<path fill="#000000" opacity="1.00" d=" M 775.74 97.76 C 778.34 95.22 780.66 92.31 783.87 90.48 C 783.91 91.25 783.98 92.79 784.02 93.56 C 778.75 98.78 773.39 103.93 768.31 109.33 C 763.70 115.97 756.80 120.57 752.12 127.15 C 750.19 129.52 747.78 131.47 746.02 133.97 C 742.68 138.61 737.87 141.91 734.43 146.44 C 730.59 151.88 724.85 155.62 721.12 161.16 C 718.16 165.56 712.84 167.53 709.99 171.99 C 706.86 176.47 702.16 179.54 699.01 184.00 C 696.27 187.87 692.23 190.60 689.58 194.55 C 685.01 199.66 680.89 205.16 675.73 209.73 C 671.68 213.14 669.37 217.98 665.90 221.89 C 663.80 224.84 660.89 227.17 659.23 230.43 C 657.83 232.86 656.20 235.15 654.71 237.53 C 652.54 243.32 646.98 246.81 644.31 252.34 C 643.48 251.75 642.68 251.15 641.89 250.53 C 643.95 245.98 648.39 243.01 650.77 238.63 C 651.87 236.16 653.37 233.90 654.69 231.54 C 658.16 226.48 662.01 221.69 665.97 217.02 C 668.37 212.55 672.46 209.47 675.49 205.49 C 676.62 204.62 677.80 203.75 678.62 202.55 C 681.28 198.61 685.25 195.81 687.90 191.86 C 691.68 187.94 694.70 183.37 698.76 179.72 C 705.11 174.05 709.54 166.54 716.53 161.53 C 719.97 157.33 724.14 153.75 727.31 149.32 C 732.65 143.35 739.04 138.33 743.76 131.80 C 748.75 127.06 752.58 121.30 757.76 116.74 C 763.01 109.74 769.70 104.04 775.74 97.76 Z" />
<path fill="#000000" opacity="1.00" d=" M 488.34 98.42 C 489.17 97.07 490.56 96.25 491.90 95.48 C 491.91 96.22 491.94 97.69 491.95 98.43 C 487.42 104.68 483.29 111.28 477.81 116.79 C 471.13 125.09 464.35 133.33 456.72 140.79 C 454.49 143.23 453.17 146.38 450.78 148.69 C 449.17 150.28 447.59 151.93 446.46 153.90 C 446.23 153.95 445.77 154.05 445.54 154.10 C 443.12 158.36 438.83 161.02 435.88 164.86 C 431.90 170.49 426.27 174.64 421.83 179.86 C 419.32 183.32 417.01 186.94 414.74 190.55 C 412.71 194.74 409.59 198.21 406.20 201.33 C 405.89 200.73 405.26 199.52 404.95 198.91 C 408.30 195.12 411.30 191.02 413.74 186.56 C 416.01 182.97 418.09 179.16 421.25 176.25 C 422.78 174.77 424.21 173.19 425.48 171.47 C 427.04 170.38 428.55 169.16 429.61 167.56 C 432.76 162.82 437.67 159.65 440.97 155.04 C 443.80 150.92 448.24 148.20 450.77 143.84 C 452.78 140.29 456.04 137.74 458.50 134.53 C 465.25 127.58 471.11 119.82 477.66 112.67 C 481.55 108.17 484.86 103.24 488.34 98.42 Z" />
<path fill="#000000" opacity="1.00" d=" M 542.67 104.53 C 543.50 102.47 545.22 101.57 547.46 101.81 C 546.63 103.45 545.67 105.01 544.76 106.60 C 543.77 108.27 542.73 109.91 541.76 111.59 C 537.21 119.03 532.15 126.15 527.37 133.44 C 516.04 148.35 506.05 164.40 492.82 177.75 C 487.95 183.89 482.71 189.71 477.73 195.75 C 472.38 200.81 468.17 206.89 463.69 212.70 C 461.78 215.01 460.57 217.76 459.32 220.45 C 457.30 224.39 454.76 228.04 452.09 231.56 C 452.06 232.07 452.00 233.10 451.96 233.62 C 451.03 234.94 450.08 236.27 449.10 237.55 C 449.02 238.52 448.96 239.48 448.90 240.45 C 448.60 241.01 448.00 242.12 447.70 242.67 C 447.09 243.04 445.88 243.76 445.27 244.13 C 443.32 242.48 444.27 240.85 445.88 239.44 C 445.94 238.96 446.06 238.00 446.12 237.52 C 447.05 235.84 447.94 234.15 448.88 232.48 C 448.94 232.00 449.05 231.03 449.11 230.55 C 452.27 226.37 455.01 221.90 457.93 217.55 C 457.97 217.05 458.06 216.06 458.10 215.56 C 461.76 210.43 465.14 205.11 469.41 200.45 C 478.82 190.47 487.08 179.46 496.24 169.25 C 501.92 163.57 506.60 156.95 511.27 150.44 C 516.93 141.56 524.08 133.71 529.78 124.84 C 532.41 120.74 535.34 116.82 537.73 112.56 C 539.36 109.88 541.24 107.34 542.67 104.53 Z" />
<path fill="#000000" opacity="1.00" d=" M 818.43 110.00 C 819.07 110.00 820.35 110.00 821.00 110.00 C 821.00 110.65 821.01 111.97 821.02 112.63 C 816.73 116.80 811.53 120.02 807.88 124.86 C 804.65 129.59 799.84 132.93 796.67 137.71 C 791.59 142.67 787.09 148.15 782.67 153.70 C 776.17 160.18 770.92 167.92 763.46 173.42 C 756.28 178.86 751.64 186.70 746.50 193.92 C 746.26 193.96 745.78 194.05 745.55 194.10 C 743.56 197.48 740.30 199.84 738.15 203.11 C 732.25 209.87 725.08 215.47 719.76 222.74 C 713.65 228.08 709.55 235.13 704.74 241.57 C 703.44 244.20 701.27 246.21 699.57 248.56 C 697.58 251.02 696.18 254.17 693.12 255.51 C 693.09 254.75 693.02 253.21 692.99 252.44 C 695.52 248.61 698.63 245.20 701.29 241.46 C 706.75 232.18 714.25 224.40 721.19 216.26 C 724.02 213.40 727.12 210.77 729.48 207.48 C 732.85 205.52 734.45 201.81 737.25 199.25 C 739.87 196.83 741.72 193.73 744.26 191.24 C 747.46 188.03 749.50 183.90 752.38 180.43 C 757.87 173.90 764.53 168.51 770.50 162.47 C 772.34 160.03 774.53 157.88 776.75 155.78 C 781.43 151.39 784.54 145.62 789.24 141.25 C 792.77 138.08 795.29 134.00 798.66 130.67 C 801.00 127.23 804.40 124.65 806.54 121.06 C 806.89 121.04 807.59 120.99 807.94 120.96 C 807.97 120.61 808.04 119.90 808.07 119.54 C 812.16 117.13 815.03 113.23 818.43 110.00 Z" />
<path fill="#000000" opacity="1.00" d=" M 299.62 121.91 C 300.97 122.10 302.32 122.31 303.65 122.69 C 304.11 122.80 305.02 123.02 305.48 123.13 C 312.73 127.76 317.98 134.81 321.78 142.42 C 322.25 143.48 322.74 144.54 323.23 145.61 C 323.78 146.57 324.34 147.52 324.90 148.48 C 324.95 149.00 325.04 150.03 325.08 150.55 C 325.70 151.52 326.31 152.49 326.93 153.46 C 326.97 154.48 327.02 155.51 327.07 156.54 C 327.68 157.50 328.29 158.48 328.89 159.45 C 329.01 161.55 328.82 163.76 329.84 165.69 C 329.87 170.66 330.67 175.80 329.33 180.65 C 329.03 182.29 328.78 183.93 328.45 185.57 C 328.03 186.57 327.61 187.57 327.18 188.58 C 327.09 189.05 326.92 190.01 326.84 190.48 C 324.08 197.09 319.10 202.90 312.50 205.86 C 312.03 205.97 311.10 206.19 310.64 206.30 C 307.99 207.33 304.98 207.37 302.35 206.28 C 301.85 206.19 300.85 206.01 300.35 205.93 C 296.10 203.66 293.49 199.54 291.07 195.55 C 291.03 195.03 290.96 193.99 290.92 193.47 C 290.31 192.49 289.70 191.52 289.10 190.55 C 289.00 189.25 288.90 187.96 288.79 186.67 C 288.20 185.05 287.95 183.34 287.64 181.66 C 287.08 179.71 286.94 177.68 286.72 175.68 C 285.20 169.85 286.21 163.65 286.16 157.68 C 286.84 155.62 287.18 153.47 287.70 151.38 C 287.82 150.91 288.06 149.98 288.18 149.51 C 290.49 143.67 294.59 138.50 300.53 136.07 C 301.90 136.02 303.28 135.98 304.66 135.94 C 306.24 137.70 307.73 139.53 309.13 141.44 C 309.61 144.09 308.10 146.27 305.34 146.36 C 304.30 144.86 303.29 143.34 302.37 141.76 C 298.56 143.53 296.04 146.82 294.11 150.44 C 294.02 150.92 293.84 151.90 293.76 152.39 C 293.34 153.71 292.97 155.05 292.59 156.38 C 291.39 162.59 292.11 169.02 292.18 175.31 C 293.09 177.66 292.97 180.24 293.71 182.64 C 293.88 183.56 294.06 184.47 294.23 185.39 C 294.77 187.12 295.22 188.87 295.77 190.59 C 295.87 191.05 296.06 191.98 296.16 192.45 C 296.88 193.47 297.60 194.50 298.26 195.57 C 299.20 198.10 301.57 199.44 303.58 201.03 C 305.61 201.00 307.71 201.07 309.65 200.32 C 310.10 200.20 311.02 199.97 311.47 199.86 C 315.68 197.50 318.62 193.69 320.93 189.54 C 320.96 189.02 321.04 187.98 321.08 187.47 C 321.68 186.49 322.28 185.52 322.88 184.55 C 322.99 183.58 323.11 182.62 323.24 181.67 C 324.56 175.77 324.37 169.31 323.34 163.37 C 323.19 162.93 322.88 162.05 322.73 161.60 C 322.21 159.88 321.78 158.13 321.25 156.41 C 321.13 155.96 320.88 155.05 320.76 154.59 C 320.40 153.55 320.05 152.51 319.73 151.47 C 318.91 149.83 318.09 148.19 317.28 146.56 C 315.22 142.21 312.71 138.03 309.67 134.31 C 306.89 132.08 304.11 129.86 301.31 127.66 C 298.09 129.79 295.61 132.85 294.29 136.48 C 293.87 137.75 293.64 140.12 291.88 140.04 C 289.68 140.58 289.18 137.85 288.08 136.56 C 288.68 135.19 289.25 133.80 289.87 132.44 C 289.93 131.96 290.04 131.01 290.10 130.53 C 292.75 127.07 295.41 123.57 299.62 121.91 Z" />
<path fill="#000000" opacity="1.00" d=" M 557.69 122.76 C 558.19 123.86 559.90 125.17 558.27 126.19 C 553.79 130.43 549.86 135.23 546.73 140.56 C 545.21 143.31 543.37 145.87 541.74 148.56 C 540.06 151.61 537.95 154.39 536.26 157.44 C 533.99 161.07 531.68 164.68 529.17 168.15 C 525.67 172.30 521.34 175.67 517.87 179.85 C 508.30 191.90 499.03 204.24 488.32 215.31 C 482.09 223.62 474.37 231.09 470.65 241.00 C 469.98 241.00 468.63 241.00 467.95 241.00 C 467.99 240.39 468.07 239.15 468.11 238.53 C 473.49 227.40 482.14 218.36 490.00 208.98 C 492.18 205.87 495.30 203.59 497.60 200.57 C 502.78 193.80 508.40 187.36 513.39 180.43 C 518.10 174.49 524.71 170.17 528.64 163.58 C 530.98 159.89 533.61 156.39 535.73 152.56 C 537.35 149.89 539.19 147.35 540.72 144.61 C 542.34 140.85 545.29 137.92 547.38 134.44 C 550.38 130.21 553.00 125.38 557.69 122.76 Z" />
<path fill="#000000" opacity="1.00" d=" M 897.53 125.05 C 899.22 125.02 900.91 125.00 902.61 124.96 C 905.29 126.31 906.64 128.96 907.94 131.52 C 907.97 135.21 908.37 138.96 907.46 142.58 C 907.88 143.62 907.84 144.65 907.34 145.66 C 907.02 147.34 906.75 149.03 906.28 150.68 C 906.04 152.66 905.87 154.67 905.41 156.62 C 905.02 157.95 904.68 159.28 904.29 160.61 C 904.13 161.05 903.81 161.94 903.65 162.38 C 903.29 163.79 903.02 165.21 902.77 166.64 C 903.47 166.91 904.87 167.44 905.57 167.71 C 906.91 168.03 908.28 168.34 909.64 168.74 C 910.13 168.82 911.12 168.98 911.61 169.07 C 914.31 170.53 916.47 172.75 918.00 175.41 C 917.90 178.82 918.49 182.36 917.31 185.64 C 917.19 186.10 916.97 187.03 916.86 187.50 C 915.58 189.91 914.18 192.25 912.78 194.60 C 911.55 196.66 910.05 198.55 908.74 200.55 C 908.01 202.55 906.55 204.00 904.56 204.73 C 903.49 205.39 902.45 206.10 901.44 206.83 C 900.99 206.95 900.09 207.20 899.64 207.32 C 898.00 207.76 896.31 208.03 894.66 208.33 C 893.53 208.92 892.42 208.89 891.34 208.23 C 890.38 208.11 889.43 207.99 888.50 207.88 C 883.66 205.79 879.85 201.97 877.00 197.61 C 876.99 197.02 876.96 195.86 876.94 195.28 C 878.00 194.45 879.08 193.62 880.18 192.82 C 880.89 193.22 882.30 194.02 883.00 194.42 C 882.99 194.98 882.97 196.11 882.96 196.67 C 885.04 198.57 887.31 200.25 889.54 201.97 C 892.17 202.00 894.81 201.99 897.45 201.95 C 904.33 199.40 907.43 192.39 910.87 186.49 C 910.98 185.54 911.10 184.60 911.25 183.66 C 912.11 181.64 912.00 179.41 912.13 177.26 C 910.66 176.18 909.18 175.14 907.65 174.19 C 906.18 173.95 904.72 173.72 903.34 173.23 C 902.33 173.13 901.34 173.03 900.36 172.95 C 898.15 171.71 894.88 169.14 896.75 166.34 C 896.89 165.43 897.06 164.51 897.23 163.60 C 897.76 161.88 898.21 160.13 898.74 158.41 C 898.89 157.96 899.19 157.07 899.35 156.62 C 900.20 153.92 899.74 150.99 900.72 148.32 C 900.97 146.30 900.95 144.20 901.82 142.31 C 902.03 139.01 902.19 135.68 901.89 132.39 C 901.16 131.28 899.88 131.03 898.69 130.84 C 896.94 132.35 894.89 133.52 893.34 135.26 C 890.24 139.34 886.55 142.97 884.03 147.47 C 883.56 153.85 884.90 160.45 883.28 166.68 C 883.03 168.68 882.95 170.72 882.29 172.65 C 882.09 173.55 881.90 174.46 881.74 175.38 C 881.33 176.71 880.95 178.05 880.60 179.39 C 880.09 181.76 879.87 184.18 879.46 186.56 C 879.03 187.57 878.59 188.58 878.16 189.58 C 878.10 190.05 877.97 191.01 877.91 191.48 C 876.39 193.66 874.79 195.82 872.42 197.11 C 871.13 195.92 868.56 195.24 869.00 193.05 C 869.29 188.16 868.14 183.00 869.82 178.31 C 870.03 175.64 869.70 172.86 870.75 170.33 C 870.87 169.37 870.99 168.42 871.13 167.46 C 871.68 166.50 872.25 165.53 872.82 164.56 C 872.98 162.82 873.15 161.06 873.63 159.37 C 873.81 158.93 874.17 158.06 874.36 157.62 C 874.67 156.23 874.95 154.83 875.23 153.42 C 875.76 152.46 876.30 151.49 876.84 150.53 C 876.96 150.06 877.18 149.11 877.29 148.64 C 878.19 146.62 878.35 144.27 877.17 142.32 C 877.07 141.02 877.01 139.72 876.96 138.43 C 877.67 138.02 879.10 137.21 879.81 136.81 C 880.76 137.54 881.69 138.29 882.65 139.04 C 887.05 133.85 891.02 127.81 897.53 125.05 M 876.23 171.24 C 876.82 171.80 876.82 171.80 876.23 171.24 Z" />
<path fill="#000000" opacity="1.00" d=" M 820.46 128.91 C 821.45 129.14 822.26 129.79 823.17 130.26 C 818.91 136.60 814.86 143.10 809.87 148.91 C 807.30 152.61 803.68 155.40 801.14 159.11 C 796.11 165.08 789.73 169.82 785.10 176.14 C 780.96 180.68 777.09 185.47 773.21 190.23 C 770.65 193.16 767.32 195.44 765.46 198.94 C 765.11 198.97 764.41 199.01 764.06 199.04 C 764.03 199.39 763.96 200.11 763.93 200.46 C 760.48 202.39 758.06 205.57 755.25 208.26 C 751.30 212.30 747.16 216.15 743.32 220.29 C 737.84 227.47 732.30 234.60 726.69 241.69 C 724.31 244.68 721.27 247.00 718.31 249.36 C 716.17 251.99 714.32 255.05 711.10 256.51 C 711.08 255.77 711.05 254.30 711.03 253.56 C 713.93 249.33 717.44 245.55 721.73 242.69 C 726.37 237.94 730.12 232.36 734.16 227.09 C 738.54 221.21 743.72 216.02 748.48 210.47 C 755.75 204.45 761.92 197.21 768.79 190.74 C 774.08 184.69 779.09 178.39 784.27 172.24 C 788.03 168.33 792.00 164.63 795.76 160.72 C 799.92 155.89 803.66 150.70 808.22 146.21 C 812.88 140.88 816.31 134.63 820.46 128.91 Z" />
<path fill="#000000" opacity="1.00" d=" M 1007.00 138.94 C 1006.48 136.09 1009.78 135.75 1011.83 135.83 C 1012.17 137.44 1013.49 139.15 1012.13 140.70 C 1012.00 143.03 1011.63 145.54 1012.84 147.69 C 1013.00 150.56 1012.98 153.43 1013.17 156.31 C 1014.76 160.01 1013.74 164.16 1014.00 168.06 C 1013.74 171.92 1014.76 176.03 1013.16 179.69 C 1012.90 183.24 1012.95 186.80 1013.12 190.36 C 1013.52 191.43 1013.92 192.52 1014.31 193.61 C 1013.21 194.45 1012.16 195.35 1011.02 196.11 C 1009.47 195.21 1008.30 193.84 1007.03 192.64 C 1006.95 191.65 1006.87 190.67 1006.81 189.68 C 1006.03 188.56 1006.03 187.44 1006.79 186.32 C 1006.93 184.77 1007.05 183.22 1007.22 181.68 C 1008.33 179.26 1007.96 176.55 1008.03 173.97 C 1007.88 167.21 1008.20 160.44 1007.84 153.69 C 1006.10 149.01 1007.32 143.82 1007.00 138.94 Z" />
<path fill="#000000" opacity="1.00" d=" M 957.83 136.82 C 958.88 137.62 959.93 138.44 960.99 139.27 C 961.05 139.78 961.18 140.81 961.25 141.32 C 962.38 143.99 961.55 147.06 962.84 149.69 C 963.05 152.80 963.01 155.92 963.00 159.04 C 965.10 159.01 967.20 158.97 969.31 158.84 C 973.63 157.11 978.46 158.34 983.00 158.01 C 982.99 159.55 982.99 161.09 983.00 162.63 C 982.35 162.96 981.06 163.61 980.41 163.94 C 976.50 164.04 972.59 163.90 968.69 164.16 C 966.93 165.09 964.90 164.99 963.00 165.14 C 963.01 174.00 962.97 182.86 963.03 191.73 C 961.51 192.91 959.96 194.05 958.45 195.22 C 955.64 195.32 954.48 192.87 954.84 190.39 C 955.38 189.96 956.46 189.10 957.00 188.66 C 956.98 180.66 957.03 172.65 956.97 164.65 C 956.33 164.97 955.06 165.61 954.42 165.93 C 951.50 165.98 948.59 165.97 945.69 166.17 C 943.50 167.24 941.02 166.98 938.69 167.19 C 936.76 169.12 935.21 166.50 933.65 165.60 C 933.79 163.38 935.30 161.98 937.38 161.45 C 940.32 160.91 943.32 160.97 946.30 160.83 C 948.93 159.60 951.97 160.34 954.66 159.27 C 955.25 159.17 956.42 158.99 957.01 158.89 C 956.93 156.03 957.44 153.00 956.20 150.32 C 956.04 148.44 955.94 146.56 955.80 144.68 C 954.82 142.74 955.00 140.53 954.93 138.44 C 955.66 138.03 957.10 137.22 957.83 136.82 Z" />
<path fill="#000000" opacity="1.00" d=" M 556.82 145.02 C 559.53 142.35 562.42 146.04 560.28 148.66 C 560.18 149.13 559.97 150.08 559.87 150.55 C 558.83 152.22 557.76 153.87 556.77 155.57 C 553.25 161.04 549.10 166.09 545.43 171.47 C 541.77 177.18 536.80 181.95 533.54 187.93 C 533.29 187.97 532.79 188.05 532.54 188.09 C 530.15 192.38 525.72 194.95 523.00 199.00 C 520.55 202.65 516.60 205.01 514.47 208.90 C 514.23 208.95 513.77 209.05 513.54 209.10 C 511.64 212.58 508.18 214.77 505.96 218.01 C 503.79 221.11 501.45 224.07 498.88 226.85 C 492.35 235.31 486.54 244.28 480.54 253.10 C 479.56 252.79 478.69 252.23 477.80 251.76 C 486.89 237.76 496.51 224.05 507.57 211.55 C 511.79 205.83 517.76 201.68 521.78 195.78 C 529.25 188.77 534.96 180.22 541.16 172.13 C 546.43 165.05 551.86 158.01 556.29 150.39 C 556.88 149.36 557.49 148.33 558.11 147.31 C 557.68 146.54 557.25 145.78 556.82 145.02 Z" />
<path fill="#000000" opacity="1.00" d=" M 828.08 185.00 C 828.82 185.00 830.29 185.00 831.02 185.00 C 830.99 186.18 830.97 187.35 830.95 188.54 C 830.32 189.51 829.69 190.48 829.07 191.46 C 829.04 191.97 828.98 193.00 828.95 193.51 C 823.75 198.83 819.73 205.21 814.25 210.27 C 810.05 214.40 805.94 218.61 801.73 222.72 C 798.79 225.49 796.79 229.09 793.74 231.76 C 786.62 239.33 780.80 248.07 773.28 255.27 C 772.80 254.50 772.36 253.71 771.96 252.91 C 774.78 249.29 777.99 245.94 780.54 242.10 C 780.77 242.05 781.23 241.95 781.45 241.90 C 785.27 236.63 789.81 231.92 793.79 226.77 C 800.49 219.82 807.50 213.17 814.21 206.23 C 818.36 200.98 822.94 196.06 826.75 190.53 C 827.07 189.47 827.43 188.42 827.81 187.38 C 827.88 186.78 828.01 185.59 828.08 185.00 Z" />
<path fill="#000000" opacity="1.00" d=" M 556.51 195.09 C 557.13 195.06 558.38 194.99 559.00 194.96 C 559.00 195.71 559.00 197.20 559.00 197.94 C 558.40 197.99 557.19 198.07 556.59 198.12 C 555.30 199.07 553.96 199.95 552.58 200.77 C 547.34 203.20 544.04 208.13 539.34 211.31 C 533.82 216.47 528.61 221.98 523.22 227.28 C 520.00 231.14 516.94 235.17 514.21 239.40 C 513.42 240.81 512.57 242.18 511.79 243.59 C 510.86 245.81 509.30 247.67 506.62 247.21 C 508.03 242.87 510.93 239.31 513.22 235.44 C 517.17 228.53 523.56 223.60 528.47 217.47 C 533.49 213.86 537.01 208.58 542.14 205.10 C 545.62 201.86 549.14 198.56 553.60 196.70 C 554.57 196.17 555.54 195.63 556.51 195.09 Z" />
<path fill="#000000" opacity="1.00" d=" M 826.34 216.93 C 827.73 216.99 829.14 217.06 830.56 217.14 C 829.12 219.59 826.41 220.87 825.01 223.34 C 824.97 223.87 824.90 224.92 824.86 225.45 C 824.07 226.93 823.33 228.43 822.62 229.94 C 822.34 229.98 821.78 230.04 821.50 230.07 C 818.79 234.71 814.86 238.42 811.68 242.71 C 809.36 245.77 806.06 247.77 803.20 250.24 C 800.94 252.15 799.84 255.20 797.10 256.55 C 797.05 255.21 797.03 253.87 797.02 252.54 C 798.25 251.24 799.41 249.87 800.46 248.42 C 805.44 245.50 808.67 240.72 812.67 236.69 C 815.83 232.71 819.10 228.79 821.98 224.59 C 821.98 224.03 822.00 222.93 822.00 222.37 C 823.31 220.46 824.78 218.66 826.34 216.93 Z" />
<path fill="#000000" opacity="1.00" d=" M 624.69 223.82 C 625.19 224.72 625.88 225.57 626.11 226.61 C 624.99 227.41 623.81 228.10 622.63 228.80 C 621.54 229.10 620.46 229.42 619.39 229.76 C 618.92 229.85 617.97 230.03 617.50 230.12 C 614.09 233.24 610.23 235.79 606.44 238.40 C 602.52 241.44 599.10 245.18 596.73 249.57 C 595.32 252.22 593.60 254.70 591.75 257.06 C 590.95 257.02 589.36 256.94 588.56 256.89 C 590.05 254.36 591.72 251.94 593.27 249.44 C 596.05 243.80 600.73 239.41 605.45 235.39 C 610.19 232.79 613.49 228.22 618.51 226.08 C 619.52 226.03 620.54 225.99 621.56 225.95 C 622.60 225.24 623.64 224.53 624.69 223.82 Z" />
<path fill="#000000" opacity="1.00" d=" M 543.49 232.45 C 546.34 230.33 549.08 228.04 551.97 225.96 C 552.76 226.39 553.54 226.85 554.32 227.34 C 549.29 232.00 543.90 236.23 538.76 240.76 C 534.43 245.40 528.01 248.34 525.68 254.64 C 525.07 255.01 523.84 255.77 523.22 256.15 C 520.93 254.21 523.15 252.28 524.22 250.40 C 525.73 246.65 529.50 244.89 532.28 242.26 C 535.98 238.95 540.20 236.18 543.49 232.45 Z" />
</g>
</svg>
