<?xml version="1.0" encoding="UTF-8" ?>
<!DOCTYPE svg PUBLIC "-//W3C//DTD SVG 1.1//EN" "http://www.w3.org/Graphics/SVG/1.1/DTD/svg11.dtd">
<svg width="1099pt" height="420pt" viewBox="0 0 1099 420" version="1.1" xmlns="http://www.w3.org/2000/svg">
<g id="#000000c2">
<path fill="#000000" opacity="0.76" d=" M 72.45 63.50 C 80.64 61.05 89.65 62.74 96.91 67.07 C 103.70 71.10 109.30 76.91 113.74 83.39 C 121.39 94.49 126.36 107.21 129.80 120.19 C 137.74 151.44 137.67 184.76 129.30 215.92 C 124.52 232.84 117.25 249.94 103.94 261.95 C 96.20 269.64 84.65 273.58 73.88 271.16 C 64.43 269.13 56.83 262.51 50.71 255.34 C 43.09 245.81 37.77 234.65 33.97 223.10 C 27.65 203.76 25.20 183.30 25.45 163.02 C 26.08 143.34 29.13 123.60 36.12 105.13 C 39.86 95.51 44.70 86.22 51.28 78.24 C 56.78 71.52 64.06 65.99 72.45 63.50 M 74.20 66.36 C 64.67 68.74 57.09 75.72 51.29 83.36 C 41.91 96.22 36.45 111.49 32.92 126.89 C 26.72 155.71 27.20 185.98 34.65 214.52 C 38.07 227.18 43.16 239.50 50.71 250.27 C 56.44 257.95 63.83 265.05 73.29 267.70 C 78.97 269.61 85.20 269.02 90.70 266.79 C 101.29 262.46 108.94 253.19 114.66 243.59 C 124.05 227.21 128.94 208.58 131.08 189.92 C 134.42 160.04 131.77 128.90 119.92 101.05 C 114.50 89.15 107.30 77.23 95.95 70.16 C 89.59 66.02 81.58 64.58 74.20 66.36 Z" />
<path fill="#000000" opacity="0.76" d=" M 450.50 72.46 C 451.81 73.08 453.80 73.01 454.42 74.62 C 458.77 83.08 462.92 92.15 462.46 101.91 C 462.03 107.45 461.45 113.45 458.12 118.11 C 456.52 120.65 450.42 120.27 452.19 116.46 C 453.45 116.22 454.72 116.02 456.01 115.86 C 459.81 107.69 460.35 98.14 457.52 89.59 C 455.72 83.66 452.07 78.48 450.50 72.46 Z" />
<path fill="#000000" opacity="0.76" d=" M 630.88 73.89 C 631.42 73.70 632.50 73.33 633.04 73.15 C 637.55 83.28 644.01 93.44 642.81 105.03 C 642.81 111.06 640.05 116.48 636.59 121.25 C 635.03 121.33 631.10 122.22 632.08 119.45 C 633.89 117.87 636.28 116.72 637.29 114.40 C 640.95 106.66 640.38 97.57 637.20 89.76 C 635.36 84.37 631.25 79.72 630.88 73.89 Z" />
<path fill="#000000" opacity="0.76" d=" M 607.52 76.56 C 608.58 74.93 611.54 73.69 612.63 75.93 C 604.07 83.83 602.11 96.73 605.34 107.55 C 606.35 110.33 609.06 111.89 610.97 113.99 C 610.76 114.66 610.35 116.01 610.14 116.68 C 606.15 114.48 602.51 111.16 601.56 106.52 C 599.82 96.31 600.86 84.91 607.52 76.56 Z" />
<path fill="#000000" opacity="0.76" d=" M 264.81 76.30 C 267.49 77.04 267.83 79.96 268.69 82.16 C 270.28 87.21 272.75 92.01 273.47 97.31 C 267.64 99.36 261.36 99.11 255.29 98.88 C 258.39 94.41 264.86 95.84 269.53 94.79 C 267.43 88.79 264.84 82.77 264.81 76.30 Z" />
<path fill="#000000" opacity="0.76" d=" M 856.23 79.46 C 854.46 77.46 857.67 76.74 858.79 77.97 C 862.52 81.22 864.73 85.75 867.14 89.98 C 870.41 95.71 870.43 102.62 869.70 108.99 C 869.00 113.23 867.85 117.77 864.72 120.90 C 862.78 122.70 859.40 120.63 859.93 118.12 C 861.21 117.79 862.51 117.56 863.83 117.42 C 867.18 110.26 868.13 101.82 865.59 94.26 C 863.51 88.73 859.78 84.09 856.23 79.46 Z" />
<path fill="#000000" opacity="0.76" d=" M 561.74 78.90 C 563.04 76.27 564.29 79.91 564.64 81.02 C 565.97 87.65 566.03 94.42 566.27 101.15 C 566.49 100.36 566.92 98.77 567.14 97.98 C 569.91 96.42 573.49 95.37 576.16 97.77 C 580.55 101.58 578.67 107.95 578.98 113.01 C 578.17 113.01 576.53 113.00 575.71 113.00 C 575.73 108.73 577.08 103.53 573.85 100.06 C 569.78 97.95 568.32 103.12 567.91 106.11 C 567.41 107.79 567.10 112.25 564.42 110.68 C 562.45 106.46 563.43 101.54 563.00 97.02 C 563.34 90.94 561.12 84.93 561.74 78.90 Z" />
<path fill="#000000" opacity="0.76" d=" M 390.58 80.51 C 391.37 78.69 392.33 78.62 393.46 80.28 C 396.53 86.09 396.07 92.87 396.00 99.23 C 397.68 97.18 398.86 93.89 402.01 93.97 C 404.91 94.19 407.27 97.01 407.04 99.90 C 407.05 103.55 407.22 107.23 406.89 110.87 C 406.26 112.01 405.29 112.37 403.99 111.95 C 402.95 106.90 405.79 100.95 402.02 96.64 C 398.81 100.06 398.26 104.80 397.03 109.12 C 396.30 109.11 394.83 109.11 394.09 109.10 C 393.97 103.71 392.91 98.40 392.90 93.00 C 392.93 88.72 391.60 84.62 390.58 80.51 Z" />
<path fill="#000000" opacity="0.76" d=" M 425.74 81.70 C 427.39 80.32 430.39 77.84 431.69 80.97 C 429.35 83.16 426.31 84.86 425.12 88.02 C 423.43 92.24 421.68 96.86 422.69 101.46 C 423.42 104.85 424.17 108.30 425.74 111.42 C 427.05 114.16 430.50 114.42 433.02 115.41 C 433.01 116.15 432.98 117.62 432.97 118.36 C 429.16 117.68 424.67 116.65 422.83 112.81 C 420.79 108.16 419.51 103.12 419.10 98.06 C 420.01 92.27 421.41 85.95 425.74 81.70 Z" />
<path fill="#000000" opacity="0.76" d=" M 779.60 80.05 C 780.38 80.03 781.95 79.98 782.73 79.96 C 785.89 88.09 787.09 96.77 787.43 105.44 C 789.30 103.23 791.26 98.90 794.82 100.74 C 798.89 102.76 798.92 108.05 799.22 111.98 C 799.17 114.20 799.31 118.62 795.99 118.02 C 795.67 112.97 796.51 107.65 793.81 103.04 C 790.14 106.35 788.19 110.95 786.87 115.61 C 785.98 114.75 783.75 114.60 784.07 112.99 C 784.76 101.86 783.31 90.58 779.60 80.05 Z" />
<path fill="#000000" opacity="0.76" d=" M 821.43 97.43 C 822.50 90.46 828.08 85.66 831.42 79.77 C 834.89 82.12 831.40 85.59 829.87 87.93 C 825.88 92.53 823.16 98.66 824.23 104.85 C 825.56 110.17 828.26 115.02 831.19 119.61 C 832.80 120.52 834.68 121.39 834.36 123.64 C 830.95 124.46 828.42 121.78 826.98 119.06 C 823.32 112.55 819.36 105.14 821.43 97.43 Z" />
<path fill="#000000" opacity="0.76" d=" M 209.06 90.96 C 225.58 88.41 242.43 87.36 259.09 89.17 C 261.96 89.56 265.63 89.77 266.70 93.05 C 259.43 93.01 252.23 91.77 244.95 91.74 C 225.84 91.96 206.24 93.15 188.29 100.28 C 178.92 103.91 169.76 108.13 161.04 113.14 C 156.12 115.88 151.85 119.80 146.43 121.58 C 146.95 120.19 147.37 118.64 148.63 117.72 C 154.30 112.73 160.97 109.11 167.61 105.59 C 180.79 99.16 194.48 93.30 209.06 90.96 Z" />
<path fill="#000000" opacity="0.76" d=" M 439.30 99.61 C 441.02 96.16 442.03 91.28 446.45 90.38 C 445.78 94.10 443.88 97.37 442.19 100.69 C 444.55 102.83 447.88 104.71 448.26 108.21 C 444.92 109.59 443.44 105.11 440.90 103.73 C 439.72 106.07 438.99 108.62 437.72 110.92 C 437.19 110.94 436.13 110.99 435.59 111.02 C 435.13 108.13 436.71 105.48 437.53 102.81 C 435.16 101.09 431.26 99.25 432.71 95.62 C 435.10 96.61 437.10 98.28 439.30 99.61 Z" />
<path fill="#000000" opacity="0.76" d=" M 78.09 91.54 C 79.96 91.75 81.03 93.04 80.69 94.93 C 79.49 98.39 77.41 101.44 75.75 104.68 C 78.61 108.55 83.84 111.04 84.46 116.20 C 79.97 114.86 77.18 110.94 74.17 107.67 C 72.62 111.40 71.53 115.32 69.73 118.94 C 67.91 119.72 66.97 117.56 67.56 116.12 C 68.72 112.39 70.34 108.83 71.94 105.27 C 67.56 101.11 62.77 97.47 57.88 93.95 C 58.35 93.48 59.29 92.55 59.75 92.09 C 65.17 94.07 69.04 98.51 73.23 102.25 C 75.37 98.94 77.18 95.40 78.09 91.54 Z" />
<path fill="#000000" opacity="0.76" d=" M 617.09 101.13 C 620.01 98.28 620.91 93.24 625.46 92.37 C 624.84 96.25 622.53 99.48 620.25 102.56 C 622.66 104.03 625.04 105.56 627.38 107.15 C 626.77 107.63 625.56 108.57 624.96 109.04 C 622.66 107.99 620.61 106.46 618.49 105.11 C 617.87 107.41 617.26 109.72 616.65 112.02 C 615.90 112.01 614.40 111.98 613.66 111.97 C 614.13 109.30 614.75 106.65 615.35 104.01 C 613.62 101.87 610.44 99.72 611.73 96.57 C 614.27 96.88 615.35 99.59 617.09 101.13 Z" />
<path fill="#000000" opacity="0.76" d=" M 849.45 97.25 C 852.05 95.37 851.93 99.17 850.76 100.51 C 849.14 103.13 847.14 105.49 845.28 107.94 C 848.56 110.59 853.96 112.69 853.57 117.75 C 849.96 116.03 847.22 113.02 843.81 110.98 C 842.69 113.37 841.87 116.00 840.00 117.94 C 836.75 115.60 840.39 112.00 841.06 109.15 C 837.94 105.96 835.06 102.08 835.87 97.32 C 839.92 98.65 839.74 103.79 842.67 106.42 C 844.97 103.40 846.83 100.02 849.45 97.25 Z" />
<path fill="#000000" opacity="0.76" d=" M 411.85 103.62 C 412.60 103.60 414.08 103.58 414.82 103.57 C 415.39 107.06 415.57 110.61 416.43 114.06 C 415.55 114.04 413.79 114.00 412.90 113.97 C 412.22 110.56 411.87 107.10 411.85 103.62 Z" />
<path fill="#000000" opacity="0.76" d=" M 581.29 110.27 C 582.56 107.35 584.79 105.13 588.00 104.53 C 589.67 105.96 590.98 107.72 591.90 109.72 C 590.56 112.87 589.16 115.99 587.48 118.97 C 590.39 118.97 595.54 116.58 596.52 120.74 C 592.43 121.06 587.09 123.81 583.93 119.89 C 584.19 115.79 588.40 113.00 588.15 108.67 C 585.66 108.71 583.94 111.82 581.29 110.27 Z" />
<path fill="#000000" opacity="0.76" d=" M 801.86 111.79 C 802.67 108.37 806.83 106.92 810.00 107.40 C 812.47 108.50 811.29 111.76 811.26 113.85 C 816.53 114.49 816.77 121.29 813.20 124.20 C 809.40 126.82 804.13 125.17 801.14 122.07 C 801.38 121.55 801.88 120.50 802.13 119.97 C 804.42 120.58 806.50 121.91 808.88 122.19 C 811.08 122.38 811.88 120.01 813.18 118.73 C 810.78 117.68 808.35 116.63 806.23 115.09 C 806.87 113.45 807.70 111.89 808.49 110.31 C 806.44 110.93 803.59 114.49 801.86 111.79 Z" />
<path fill="#000000" opacity="0.76" d=" M 92.13 108.99 C 92.86 108.99 94.33 109.00 95.06 109.01 C 94.97 113.05 95.02 117.10 94.87 121.14 L 93.95 121.68 C 93.47 121.49 92.51 121.13 92.04 120.94 C 90.70 117.06 91.96 112.95 92.13 108.99 Z" />
<path fill="#000000" opacity="0.76" d=" M 452.23 123.23 C 455.73 121.78 455.00 126.94 455.13 129.00 C 545.54 128.98 635.94 129.04 726.35 128.97 C 726.82 128.29 727.78 126.91 728.26 126.22 C 729.27 126.95 730.10 127.87 730.74 128.97 C 825.17 129.03 919.61 128.98 1014.05 129.00 C 1020.02 128.87 1026.05 129.38 1031.98 128.41 C 1036.63 129.22 1041.36 128.95 1046.05 129.00 C 1055.53 129.00 1065.00 129.01 1074.48 128.99 C 1074.89 145.64 1074.55 162.30 1074.66 178.96 C 1074.54 194.31 1074.89 209.67 1074.48 225.01 C 1060.83 224.99 1047.20 225.01 1033.56 225.00 C 1033.30 225.56 1032.80 226.68 1032.54 227.24 C 1031.18 227.83 1030.52 225.67 1029.60 225.09 C 1017.84 224.93 1006.08 224.99 994.32 225.05 C 993.90 225.74 993.05 227.11 992.62 227.80 C 991.62 227.08 990.87 226.16 990.36 225.02 C 975.96 224.97 961.56 225.01 947.16 225.01 C 946.69 225.49 945.74 226.44 945.26 226.92 C 944.04 225.81 942.74 224.73 940.99 225.03 C 870.68 224.92 800.37 225.09 730.07 225.00 C 730.02 226.55 729.96 228.11 729.89 229.67 C 727.74 228.93 726.61 227.24 726.60 225.00 C 712.72 225.00 698.85 225.00 684.97 225.00 C 680.91 225.05 676.79 224.74 672.82 225.74 C 670.27 225.18 667.65 224.96 665.05 225.00 C 595.12 225.00 525.19 225.00 455.26 225.00 C 455.28 227.41 454.89 229.71 452.03 229.85 C 451.99 228.23 451.98 226.62 451.99 225.00 C 432.55 225.02 413.11 224.96 393.67 225.03 C 392.95 227.85 390.38 227.13 389.25 225.11 C 355.68 224.86 322.10 225.06 288.52 225.01 C 288.10 201.02 288.46 177.03 288.34 153.04 C 288.41 144.99 288.15 136.93 288.53 128.89 C 322.12 129.12 355.72 128.96 389.32 128.98 C 390.00 127.33 391.21 126.08 392.83 125.33 C 392.90 126.25 393.03 128.08 393.09 129.00 C 412.68 129.00 432.27 129.00 451.86 129.00 C 451.94 127.07 451.92 125.14 452.23 123.23 M 291.67 132.00 C 291.76 161.99 291.45 191.99 291.82 221.98 C 306.99 222.02 322.16 221.99 337.32 222.00 C 337.36 192.00 337.34 162.00 337.33 132.01 C 322.11 131.99 306.89 132.00 291.67 132.00 M 340.00 132.01 C 340.00 162.00 340.00 192.00 340.00 221.99 C 356.67 222.01 373.33 221.99 389.99 222.00 C 390.01 192.00 390.00 162.00 390.00 132.00 C 373.33 132.00 356.67 131.99 340.00 132.01 M 393.01 132.00 C 392.99 162.00 393.01 191.99 393.00 221.99 C 412.66 222.01 432.33 222.00 451.99 222.00 C 452.00 192.00 452.01 162.00 451.99 132.00 C 432.33 132.00 412.67 132.00 393.01 132.00 M 455.00 132.00 C 455.00 162.00 455.00 192.00 455.00 222.00 C 473.33 222.00 491.66 222.00 510.00 222.00 C 510.00 192.00 510.00 162.00 510.00 132.00 C 491.67 132.00 473.33 132.00 455.00 132.00 M 512.67 132.00 C 512.65 162.00 512.65 192.00 512.67 222.00 C 529.56 222.00 546.44 222.00 563.33 222.00 C 563.34 192.00 563.35 162.00 563.33 132.00 C 546.44 132.00 529.55 132.00 512.67 132.00 M 566.00 132.01 C 566.00 162.00 566.00 192.00 566.00 221.99 C 583.11 222.00 600.22 222.00 617.33 221.99 C 617.35 192.00 617.34 162.00 617.34 132.01 C 600.22 132.00 583.11 132.00 566.00 132.01 M 620.01 132.00 C 620.00 162.00 620.00 192.00 620.00 222.00 C 637.11 222.00 654.22 222.00 671.33 222.00 C 671.34 192.00 671.35 162.00 671.33 132.00 C 654.22 132.00 637.11 132.00 620.01 132.00 M 674.00 132.01 C 674.00 162.00 674.00 192.00 674.00 221.99 C 691.66 222.00 709.33 222.00 726.99 222.00 C 727.00 192.00 727.00 162.00 726.99 132.00 C 709.33 132.00 691.66 132.00 674.00 132.01 M 730.00 132.00 C 730.00 162.00 730.00 192.00 730.00 222.00 C 747.44 222.00 764.89 222.00 782.33 222.00 C 782.48 192.00 782.09 161.99 782.53 132.00 C 765.02 132.00 747.51 132.00 730.00 132.00 M 785.01 132.00 C 785.00 162.00 785.00 192.00 785.00 222.00 C 802.00 221.99 819.00 222.01 836.00 221.99 C 836.00 191.99 836.00 162.00 836.00 132.01 C 819.00 132.00 802.00 132.00 785.01 132.00 M 838.67 132.00 C 838.66 162.00 838.65 192.00 838.67 222.00 C 855.78 222.00 872.89 222.00 890.00 222.00 C 890.03 192.00 889.93 162.00 890.04 132.00 C 872.92 132.00 855.79 132.00 838.67 132.00 M 892.47 132.00 C 892.91 161.99 892.53 192.00 892.67 222.00 C 909.77 222.00 926.88 222.00 943.99 222.00 C 944.01 192.00 944.00 162.00 944.00 132.00 C 926.82 132.00 909.65 132.00 892.47 132.00 M 946.67 132.00 C 946.65 162.00 946.66 192.00 946.67 222.00 C 961.44 222.00 976.22 222.00 990.99 222.00 C 991.00 203.66 991.00 185.32 991.00 166.98 C 991.24 155.33 990.51 143.63 991.34 132.00 C 976.45 132.00 961.56 132.00 946.67 132.00 M 993.47 132.00 C 993.92 161.99 993.52 192.00 993.67 222.00 C 1005.89 222.00 1018.11 222.00 1030.33 222.00 C 1030.35 192.00 1030.34 162.00 1030.33 132.00 C 1018.04 132.00 1005.75 132.00 993.47 132.00 M 1033.00 132.01 C 1033.00 162.00 1033.00 192.00 1033.00 222.00 C 1045.78 222.00 1058.55 222.00 1071.33 222.00 C 1071.35 192.00 1071.34 162.00 1071.33 132.00 C 1058.55 132.00 1045.78 132.00 1033.00 132.01 Z" />
<path fill="#000000" opacity="0.76" d=" M 72.33 142.94 C 74.15 139.13 75.89 135.10 79.02 132.15 C 79.45 132.61 80.30 133.53 80.72 133.98 C 78.97 137.85 76.17 141.16 74.71 145.17 C 76.38 148.20 78.81 150.78 80.16 154.01 C 79.48 154.38 78.13 155.12 77.45 155.50 C 76.19 153.31 75.00 151.06 73.45 149.06 C 71.14 150.74 70.71 153.89 69.19 156.18 C 67.86 158.69 65.49 160.38 63.03 161.66 C 63.03 160.88 63.04 159.31 63.05 158.53 C 66.76 155.27 68.22 150.44 70.70 146.32 C 68.45 142.24 62.77 139.87 62.90 134.78 C 63.38 134.68 64.32 134.48 64.80 134.38 C 67.20 137.32 69.52 140.35 72.33 142.94 Z" />
<path fill="#000000" opacity="0.76" d=" M 81.69 159.23 C 80.26 155.01 87.15 149.23 90.23 153.80 C 92.96 157.78 90.23 162.49 88.01 166.01 C 90.64 166.64 94.96 164.74 96.13 167.96 L 95.40 168.87 C 91.29 169.03 86.28 169.99 82.95 166.95 C 82.51 164.90 84.75 164.11 85.85 162.82 C 87.75 160.98 89.56 157.31 87.00 155.26 C 85.28 156.65 84.20 159.20 81.69 159.23 Z" />
<path fill="#000000" opacity="0.76" d=" M 420.16 159.89 C 420.83 159.95 422.17 160.07 422.84 160.14 C 423.73 169.90 426.39 179.42 426.84 189.23 C 429.53 188.11 432.17 186.22 435.23 186.62 C 435.50 188.93 433.30 189.76 431.64 190.65 C 427.52 192.83 422.65 193.86 418.05 192.87 C 416.33 192.48 415.91 191.49 416.81 189.88 C 419.08 189.74 421.36 189.94 423.63 190.06 C 423.51 182.16 421.21 174.53 420.77 166.68 C 419.72 167.94 417.92 168.68 416.91 166.91 C 417.80 164.48 419.06 162.22 420.16 159.89 Z" />
<path fill="#000000" opacity="0.76" d=" M 583.66 171.04 C 582.72 168.85 584.78 167.22 586.19 165.86 C 587.64 164.29 589.74 166.14 589.77 167.82 C 590.42 174.29 590.12 180.85 589.76 187.33 C 593.68 186.91 597.49 185.88 601.31 184.95 C 602.06 186.55 601.46 188.11 599.82 188.74 C 596.66 190.01 593.19 189.88 589.91 190.59 C 587.36 191.03 584.91 192.17 582.28 191.99 C 582.00 191.35 581.44 190.08 581.15 189.45 C 582.91 188.91 584.73 188.47 586.54 188.09 C 587.19 182.28 587.22 176.44 586.97 170.60 C 585.87 170.84 584.76 170.99 583.66 171.04 Z" />
<path fill="#000000" opacity="0.76" d=" M 806.37 173.34 C 807.49 170.31 809.34 167.20 812.99 167.20 C 814.68 174.48 814.05 182.03 813.73 189.43 C 817.53 188.88 821.23 187.85 824.99 187.06 C 826.69 189.37 823.75 191.35 821.63 191.48 C 816.37 191.98 811.20 193.04 806.08 194.36 C 805.74 193.74 805.05 192.50 804.71 191.88 C 806.47 191.24 808.39 190.91 810.01 189.90 C 811.38 184.11 810.90 178.11 811.00 172.22 C 809.46 172.60 807.90 172.98 806.37 173.34 Z" />
<path fill="#000000" opacity="0.76" d=" M 69.26 179.22 C 70.81 176.99 72.92 179.70 73.84 181.02 C 73.39 182.93 71.42 183.02 69.87 183.51 C 69.76 182.13 67.41 180.22 69.26 179.22 Z" />
<path fill="#000000" opacity="0.76" d=" M 70.18 192.93 C 71.86 191.05 74.71 193.85 73.97 195.80 C 72.97 196.70 71.94 197.56 70.88 198.38 C 70.04 196.75 67.68 194.33 70.18 192.93 Z" />
<path fill="#000000" opacity="0.76" d=" M 70.59 207.64 C 71.94 208.11 73.99 207.54 74.77 209.09 C 74.93 209.89 75.25 211.48 75.41 212.28 C 74.09 211.99 70.98 213.20 70.98 210.91 C 70.88 210.10 70.69 208.46 70.59 207.64 Z" />
<path fill="#000000" opacity="0.76" d=" M 55.32 225.97 C 56.18 222.64 58.77 224.84 59.59 226.80 C 61.77 228.41 64.04 229.92 66.32 231.39 C 68.32 229.12 70.07 226.66 72.03 224.37 C 72.58 224.47 73.69 224.66 74.25 224.76 C 73.84 228.23 71.12 230.65 68.93 233.12 C 72.00 235.73 77.83 238.34 76.28 243.20 C 74.43 243.35 73.54 241.68 72.44 240.54 C 70.91 238.73 69.08 237.24 67.22 235.79 C 65.31 238.77 64.13 242.12 62.75 245.36 C 62.15 245.45 60.95 245.63 60.35 245.71 C 59.87 241.30 62.63 237.59 64.82 234.06 C 61.49 231.68 56.62 230.23 55.32 225.97 Z" />
<path fill="#000000" opacity="0.76" d=" M 80.06 241.14 C 80.60 239.02 82.59 237.91 84.09 236.54 C 88.06 237.19 89.11 241.14 89.06 244.61 C 90.51 245.99 91.93 247.40 93.34 248.82 C 91.92 251.84 89.42 253.91 86.22 254.78 C 84.48 254.42 82.74 254.09 81.00 253.77 C 81.00 253.08 81.00 251.68 81.00 250.99 C 83.48 250.57 88.91 252.38 88.89 248.58 C 88.09 248.32 86.50 247.79 85.70 247.53 C 85.54 245.09 85.48 242.64 85.13 240.22 C 83.49 241.11 81.25 244.11 80.06 241.14 Z" />
<path fill="#000000" opacity="0.76" d=" M 1068.56 245.79 C 1068.95 245.34 1069.74 244.42 1070.14 243.97 L 1071.38 244.91 C 1071.43 250.10 1070.46 255.29 1069.38 260.35 C 1067.29 265.52 1061.53 267.69 1056.81 269.85 C 1050.10 272.13 1043.76 275.45 1036.88 277.21 C 1030.94 278.72 1024.77 278.99 1018.86 280.57 C 1010.25 282.72 1001.31 282.32 992.58 283.55 C 981.77 284.99 970.85 284.68 960.01 285.61 C 937.97 285.80 915.92 285.31 893.91 286.32 C 878.63 287.73 863.27 287.56 847.97 288.66 C 831.97 288.45 815.93 289.22 799.96 288.02 C 790.63 288.00 781.30 287.61 772.00 287.03 C 747.34 286.99 722.68 286.98 698.02 287.03 C 686.77 287.90 675.38 289.04 664.76 293.10 C 659.04 295.35 652.46 296.43 647.91 300.87 C 644.09 305.70 642.30 311.80 638.86 316.88 C 637.41 317.67 635.15 318.81 634.04 316.93 C 631.16 313.17 629.58 308.30 625.37 305.68 C 615.78 297.59 602.69 297.61 590.91 296.01 C 581.29 294.42 571.47 295.23 561.82 293.88 C 554.19 293.62 546.58 293.08 538.95 292.87 C 530.37 291.65 521.67 292.01 513.06 291.12 C 504.10 290.22 495.10 291.10 486.14 290.43 C 480.10 289.80 474.02 290.05 467.97 290.00 C 441.97 290.00 415.98 290.00 389.99 290.00 C 379.29 290.16 368.59 289.58 357.91 289.04 C 337.09 289.52 314.73 284.58 299.20 269.90 C 293.53 264.34 293.68 255.86 295.06 248.62 C 295.82 248.54 297.36 248.39 298.13 248.32 C 297.82 253.10 297.08 258.01 298.31 262.73 C 299.70 266.08 302.44 268.64 305.29 270.80 C 320.01 282.73 339.72 285.84 358.14 286.07 C 365.76 286.22 373.35 287.16 380.98 287.00 C 413.98 286.99 446.98 287.02 479.98 286.98 C 488.33 287.53 496.71 287.07 505.04 287.94 C 517.06 287.90 529.06 288.67 541.00 289.93 C 550.38 289.70 559.69 290.88 569.05 291.27 C 581.83 291.51 594.51 293.19 607.18 294.75 C 615.31 295.90 623.29 299.14 629.35 304.79 C 632.45 307.51 634.26 311.30 636.30 314.83 C 638.59 310.26 641.11 305.80 643.47 301.26 C 646.04 296.74 651.02 294.50 655.71 292.80 C 665.57 289.42 675.48 285.60 685.99 284.96 C 698.92 283.27 711.97 284.25 724.97 284.00 C 739.66 284.00 754.34 284.00 769.03 283.98 C 778.70 284.21 788.33 285.34 798.01 284.96 C 816.00 285.62 834.01 285.27 852.01 285.32 C 874.00 284.37 895.98 283.23 917.97 282.31 C 943.65 282.17 969.45 283.27 995.00 280.04 C 1002.27 279.01 1009.71 279.42 1016.89 277.70 C 1025.70 275.28 1035.11 275.35 1043.56 271.57 C 1051.00 268.14 1059.82 266.72 1065.66 260.54 C 1067.87 255.96 1067.15 250.60 1068.56 245.79 Z" />
<path fill="#000000" opacity="0.76" d=" M 631.38 337.37 C 632.29 337.37 634.10 337.36 635.01 337.36 C 635.00 340.57 635.00 343.79 635.00 347.00 C 637.60 345.21 640.81 343.41 643.95 345.13 C 650.68 348.36 651.05 358.35 646.67 363.68 C 644.55 366.27 641.02 366.10 638.01 366.14 C 637.26 365.50 636.51 364.89 635.78 364.27 C 634.44 365.14 633.00 365.74 631.43 366.05 C 631.25 356.49 631.34 346.93 631.38 337.37 M 638.33 348.20 C 634.08 351.02 634.00 357.51 636.61 361.45 C 639.14 365.05 644.96 362.58 645.32 358.53 C 646.94 354.04 644.37 345.83 638.33 348.20 Z" />
<path fill="#000000" opacity="0.76" d=" M 653.34 337.41 C 654.26 337.40 656.10 337.37 657.02 337.35 C 657.01 338.42 657.01 340.56 657.01 341.62 C 656.11 341.63 654.31 341.64 653.41 341.65 C 653.39 340.59 653.35 338.47 653.34 337.41 Z" />
<path fill="#000000" opacity="0.76" d=" M 662.98 340.10 C 664.22 339.38 665.47 338.66 666.73 337.95 C 666.68 340.29 666.66 342.64 666.64 344.99 C 667.48 344.99 669.16 345.00 670.00 345.00 C 670.00 345.75 670.00 347.25 670.00 348.00 C 669.17 348.00 667.51 348.00 666.68 348.00 C 666.62 353.01 666.60 358.01 666.83 363.02 C 667.61 362.95 669.18 362.82 669.96 362.75 C 670.04 363.56 670.20 365.19 670.28 366.01 C 668.56 366.00 666.85 366.00 665.15 366.00 C 664.42 365.38 663.70 364.77 662.99 364.16 C 663.00 358.92 663.00 353.68 663.00 348.45 C 661.05 348.24 659.71 347.46 660.39 345.35 C 661.05 345.16 662.35 344.76 663.00 344.56 C 662.99 343.07 662.98 341.58 662.98 340.10 Z" />
<path fill="#000000" opacity="0.76" d=" M 588.00 345.00 C 588.75 345.00 590.26 345.00 591.02 345.00 C 591.01 345.54 591.00 346.62 590.99 347.17 C 593.75 344.94 597.20 343.95 600.68 344.93 C 601.37 345.79 602.06 346.64 602.76 347.51 C 604.80 346.27 606.87 345.09 608.95 343.93 C 611.08 345.01 614.48 345.24 615.09 348.06 C 616.34 353.81 615.40 359.78 615.62 365.62 C 614.71 365.62 612.90 365.63 611.99 365.63 C 611.89 360.44 612.23 355.24 611.79 350.07 C 611.33 347.64 608.27 348.22 606.46 347.92 C 605.63 348.73 604.81 349.55 603.99 350.36 C 603.52 355.44 603.64 360.54 603.63 365.64 C 602.72 365.64 600.90 365.64 599.99 365.64 C 599.87 360.49 600.27 355.31 599.75 350.19 C 599.19 347.64 596.35 348.13 594.39 347.93 C 593.58 348.76 592.78 349.58 591.99 350.41 C 591.52 355.46 591.64 360.54 591.65 365.60 C 590.73 365.61 588.90 365.63 587.99 365.64 C 588.00 358.75 588.00 351.88 588.00 345.00 Z" />
<path fill="#000000" opacity="0.76" d=" M 653.36 344.99 C 654.27 344.99 656.09 345.00 657.00 345.00 C 657.00 351.88 656.99 358.76 657.01 365.64 C 656.10 365.64 654.29 365.63 653.38 365.62 C 653.31 358.75 653.33 351.87 653.36 344.99 Z" />
<path fill="#000000" opacity="0.76" d=" M 673.10 347.38 C 677.31 342.65 686.97 343.63 688.46 350.43 C 687.57 350.61 685.79 350.98 684.90 351.16 C 684.17 350.07 683.45 348.98 682.75 347.90 C 680.28 347.79 675.30 347.23 675.98 351.10 C 679.37 354.26 685.41 352.88 688.27 356.89 C 690.96 361.45 685.77 366.80 681.04 366.11 C 677.23 366.72 672.84 364.86 672.00 360.79 C 671.50 358.98 673.70 359.14 674.81 358.59 C 676.00 360.17 676.52 362.98 678.95 363.04 C 680.79 363.24 683.35 363.45 684.50 361.63 C 684.77 360.55 684.99 359.46 685.17 358.37 C 681.71 357.39 678.10 356.77 674.86 355.18 C 672.12 353.72 671.61 349.90 673.10 347.38 Z" />
</g>
</svg>
